<svg xmlns="http://www.w3.org/2000/svg" xmlns:cc="http://web.resource.org/cc/" xmlns:svg="http://www.w3.org/2000/svg" id="svg2" width="744.094" height="1052.362"><defs id="defs4"><marker id="Arrow2Lstart" orient="auto" overflow="visible" refX="0" refY="0"><path id="path4293" fill-rule="evenodd" stroke-linejoin="round" stroke-width=".625" d="M 8.7185878,4.0337352 L -2.2072895,0.016013256 L 8.7185884,-4.0017078 C 6.9730900,-1.6296469 6.9831476,1.6157441 8.7185878,4.0337352 z" font-size="12" transform="scale(1.1) translate(1,0)"/></marker><marker id="Arrow1Lstart" orient="auto" overflow="visible" refX="0" refY="0"><path id="path4275" fill-rule="evenodd" stroke="#000" stroke-width="1pt" marker-start="none" d="M 0.0,0.0 L 5.0,-5.0 L -12.5,0.0 L 5.0,5.0 L 0.0,0.0 z" transform="scale(0.8) translate(12.5,0)"/></marker><marker id="Arrow1Lend" orient="auto" overflow="visible" refX="0" refY="0"><path id="path4278" fill-rule="evenodd" stroke="#000" stroke-width="1pt" marker-start="none" d="M 0.0,0.0 L 5.0,-5.0 L -12.5,0.0 L 5.0,5.0 L 0.0,0.0 z" transform="scale(0.8) rotate(180) translate(12.5,0)"/></marker><marker id="Arrow1Mend" orient="auto" overflow="visible" refX="0" refY="0"><path id="path4284" fill-rule="evenodd" stroke="#000" stroke-width="1pt" marker-start="none" d="M 0.0,0.0 L 5.0,-5.0 L -12.5,0.0 L 5.0,5.0 L 0.0,0.0 z" transform="scale(0.4) rotate(180) translate(10,0)"/></marker><marker id="Arrow1Mstart" orient="auto" overflow="visible" refX="0" refY="0"><path id="path4281" fill-rule="evenodd" stroke="#000" stroke-width="1pt" marker-start="none" d="M 0.0,0.0 L 5.0,-5.0 L -12.5,0.0 L 5.0,5.0 L 0.0,0.0 z" transform="scale(0.4) translate(10,0)"/></marker></defs><metadata id="metadata7"/><g id="layer1"><rect id="rect2184" width="149.224" height="54.224" x="339.932" y="238.657" fill="#59f" fill-rule="evenodd" stroke="#000" stroke-dasharray="none" stroke-linecap="butt" stroke-linejoin="miter" stroke-miterlimit="4" stroke-opacity="1" stroke-width=".776"/><text id="text4470" x="388.5" y="269.958" fill="#000" fill-opacity="1" stroke="none" stroke-linecap="butt" stroke-linejoin="miter" stroke-opacity="1" stroke-width="1" font-family="Bitstream Vera Sans" font-size="12" font-style="normal" font-weight="normal" xml:space="preserve"><tspan id="tspan4472" x="388.5" y="269.958" font-family="Courier 10 Pitch" font-size="18">Apply</tspan></text><rect id="rect4492" width="149.222" height="15.222" x="339.933" y="222.615" fill="#59f" fill-rule="evenodd" stroke="#000" stroke-dasharray="none" stroke-linecap="butt" stroke-linejoin="miter" stroke-miterlimit="4" stroke-opacity="1" stroke-width=".778"/><path id="path7411" fill="#fff" fill-opacity="1" stroke="#000" stroke-dasharray="none" stroke-miterlimit="4" stroke-opacity="1" stroke-width=".783" d="M 298.1208 252.11807 A 5.0164557 4.7775769 0 1 1 288.08788,252.11807 A 5.0164557 4.7775769 0 1 1 298.1208 252.11807 z" transform="matrix(0.9967197,0,0,1.0465556,80.719902,-33.716585)"/><path id="path8382" fill="#fff" fill-opacity="1" stroke="#000" stroke-dasharray="none" stroke-miterlimit="4" stroke-opacity="1" stroke-width=".783" d="M 298.1208 252.11807 A 5.0164557 4.7775769 0 1 1 288.08788,252.11807 A 5.0164557 4.7775769 0 1 1 298.1208 252.11807 z" transform="matrix(0.9967197,0,0,1.0465556,163.84177,-33.716585)"/><rect id="rect4483" width="149.222" height="15.222" x="339.915" y="293.678" fill="#59f" fill-rule="evenodd" stroke="#000" stroke-dasharray="none" stroke-linecap="butt" stroke-linejoin="miter" stroke-miterlimit="4" stroke-opacity="1" stroke-width=".778"/><path id="path8384" fill="#fff" fill-opacity="1" stroke="#000" stroke-dasharray="none" stroke-miterlimit="4" stroke-opacity="1" stroke-width=".783" d="M 298.1208 252.11807 A 5.0164557 4.7775769 0 1 1 288.08788,252.11807 A 5.0164557 4.7775769 0 1 1 298.1208 252.11807 z" transform="matrix(0.9967197,0,0,1.0465556,123.78942,37.471974)"/><path id="path8455" fill="#fff" fill-opacity="1" stroke="#000" stroke-dasharray="none" stroke-miterlimit="4" stroke-opacity="1" stroke-width=".783" d="M 298.1208 252.11807 A 5.0164557 4.7775769 0 1 1 288.08788,252.11807 A 5.0164557 4.7775769 0 1 1 298.1208 252.11807 z" transform="matrix(0.9967197,0,0,1.0465556,60.378242,2.4814436)"/><g id="g8467" transform="translate(110.2947,-116.37302)"><path id="path8457" fill="#87deaa" fill-opacity="1" stroke="#000" stroke-dasharray="none" stroke-miterlimit="4" stroke-opacity="1" stroke-width=".8" d="M 187.15544 385.49426 A 21.620844 18.242588 0 1 1 143.91375,385.49426 A 21.620844 18.242588 0 1 1 187.15544 385.49426 z" transform="matrix(0.90677,0,0,1.0746904,0.5745625,-32.177075)"/><text id="text8459" x="151.008" y="394.304" fill="#000" fill-opacity="1" stroke="none" stroke-linecap="butt" stroke-linejoin="miter" stroke-opacity="1" stroke-width="1" font-family="Bitstream Vera Sans" font-size="38.984" font-style="normal" font-weight="normal" text-anchor="middle" xml:space="preserve" style="text-align:center"><tspan id="tspan8461" x="151.008" y="394.304">*</tspan></text></g><path id="path8463" fill="none" fill-rule="evenodd" stroke="#000" stroke-linecap="butt" stroke-linejoin="miter" stroke-opacity="1" stroke-width="1" marker-end="url(#Arrow1Lend)" marker-start="none" d="M 347.13075,266.30169 L 280.97106,265.86799" display="inline"/><rect id="rect9460" width="46.894" height="26.624" x="349.175" y="156.987" fill="#b35b4f" fill-opacity="1" stroke="#000" stroke-dasharray="none" stroke-miterlimit="4" stroke-opacity="1" stroke-width=".526" ry="8.108"/><text id="text9451" x="380.694" y="177.848" fill="#000" fill-opacity="1" stroke="none" stroke-linecap="butt" stroke-linejoin="miter" stroke-opacity="1" stroke-width="1" font-family="Bitstream Vera Sans" font-size="23.694" font-style="normal" font-weight="normal" text-anchor="middle" xml:space="preserve" style="text-align:center"><tspan id="tspan9453" x="380.694" y="177.848">y</tspan></text><path id="path9458" fill="#fff" fill-opacity="1" stroke="#000" stroke-dasharray="none" stroke-miterlimit="4" stroke-opacity="1" stroke-width=".783" d="M 298.1208 252.11807 A 5.0164557 4.7775769 0 1 1 288.08788,252.11807 A 5.0164557 4.7775769 0 1 1 298.1208 252.11807 z" transform="matrix(0.9967197,0,0,1.0465556,70.681922,-92.542809)"/><rect id="rect9464" width="46.894" height="26.624" x="431.266" y="156.649" fill="#b35b4f" fill-opacity="1" stroke="#000" stroke-dasharray="none" stroke-miterlimit="4" stroke-opacity="1" stroke-width=".526" ry="8.108"/><text id="text9466" x="462.785" y="177.51" fill="#000" fill-opacity="1" stroke="none" stroke-linecap="butt" stroke-linejoin="miter" stroke-opacity="1" stroke-width="1" font-family="Bitstream Vera Sans" font-size="23.694" font-style="normal" font-weight="normal" text-anchor="middle" xml:space="preserve" style="text-align:center"><tspan id="tspan9468" x="462.785" y="177.51">z</tspan></text><path id="path9470" fill="#fff" fill-opacity="1" stroke="#000" stroke-dasharray="none" stroke-miterlimit="4" stroke-opacity="1" stroke-width=".783" d="M 298.1208 252.11807 A 5.0164557 4.7775769 0 1 1 288.08788,252.11807 A 5.0164557 4.7775769 0 1 1 298.1208 252.11807 z" transform="matrix(0.9967197,0,0,1.0465556,152.77358,-92.880619)"/><rect id="rect9472" width="46.894" height="26.624" x="393.43" y="352.588" fill="#b35b4f" fill-opacity="1" stroke="#000" stroke-dasharray="none" stroke-miterlimit="4" stroke-opacity="1" stroke-width=".526" ry="8.108"/><path id="path9478" fill="#fff" fill-opacity="1" stroke="#000" stroke-dasharray="none" stroke-miterlimit="4" stroke-opacity="1" stroke-width=".783" d="M 298.1208 252.11807 A 5.0164557 4.7775769 0 1 1 288.08788,252.11807 A 5.0164557 4.7775769 0 1 1 298.1208 252.11807 z" transform="matrix(0.9967197,0,0,1.0465556,114.9371,103.05828)"/><path id="path9484" fill="none" fill-rule="evenodd" stroke="#000" stroke-linecap="butt" stroke-linejoin="miter" stroke-opacity="1" stroke-width="1" marker-end="url(#Arrow1Lend)" marker-mid="url(#Arrow2Lstart)" marker-start="url(#Arrow1Lstart)" d="M 416.01143,306.73743 L 416.67835,352.32511"/><path id="path9486" fill="none" fill-rule="evenodd" stroke="#000" stroke-linecap="butt" stroke-linejoin="miter" stroke-opacity="1" stroke-width="1" marker-end="url(#Arrow1Lend)" d="M 455.87035,224.72912 L 455.0001,183.53674"/><path id="path9488" fill="none" fill-rule="evenodd" stroke="#000" stroke-linecap="butt" stroke-linejoin="miter" stroke-opacity="1" stroke-width="1" marker-end="url(#Arrow1Lend)" d="M 372.84098,224.72912 L 372.67643,183.87454"/><text id="text9514" x="308.773" y="259.823" fill="#000" fill-opacity="1" stroke="none" stroke-linecap="butt" stroke-linejoin="miter" stroke-opacity="1" stroke-width="1" font-family="Bitstream Vera Sans" font-size="12" font-style="normal" font-weight="normal" xml:space="preserve"><tspan id="tspan9516" x="308.773" y="259.823">op</tspan></text><text id="text9518" x="424.255" y="333.469" fill="#000" fill-opacity="1" stroke="none" stroke-linecap="butt" stroke-linejoin="miter" stroke-opacity="1" stroke-width="1" font-family="Bitstream Vera Sans" font-size="12" font-style="normal" font-weight="normal" xml:space="preserve"><tspan id="tspan9520" x="424.255" y="333.469">owner</tspan></text><text id="text9522" x="493.244" y="234.148" fill="#000" fill-opacity="1" stroke="none" stroke-linecap="butt" stroke-linejoin="miter" stroke-opacity="1" stroke-width="1" font-family="Bitstream Vera Sans" font-size="12" font-style="normal" font-weight="normal" xml:space="preserve"><tspan id="tspan9524" x="493.244" y="234.148">inputs</tspan></text><text id="text9526" x="493.713" y="305.092" fill="#000" fill-opacity="1" stroke="none" stroke-linecap="butt" stroke-linejoin="miter" stroke-opacity="1" stroke-width="1" font-family="Bitstream Vera Sans" font-size="12" font-style="normal" font-weight="normal" xml:space="preserve"><tspan id="tspan9528" x="493.713" y="305.092">outputs</tspan></text><rect id="rect9530" width="58.018" height="19.022" x="305.006" y="126.722" fill="#c88fd5" fill-opacity="1" stroke="#000" stroke-dasharray="none" stroke-miterlimit="4" stroke-opacity="1" stroke-width=".563" rx="7.337" ry="7.337"/><text id="text9532" x="312.961" y="140.233" fill="#000" fill-opacity="1" stroke="none" stroke-linecap="butt" stroke-linejoin="miter" stroke-opacity="1" stroke-width="1" font-family="Bitstream Vera Sans" font-size="12" font-style="normal" font-weight="normal" xml:space="preserve"><tspan id="tspan9534" x="312.961" y="140.233">matrix</tspan></text><rect id="rect9536" width="58.018" height="19.022" x="385.006" y="126.722" fill="#c88fd5" fill-opacity="1" stroke="#000" stroke-dasharray="none" stroke-miterlimit="4" stroke-opacity="1" stroke-width=".563" rx="7.337" ry="7.337"/><text id="text9538" x="392.961" y="140.233" fill="#000" fill-opacity="1" stroke="none" stroke-linecap="butt" stroke-linejoin="miter" stroke-opacity="1" stroke-width="1" font-family="Bitstream Vera Sans" font-size="12" font-style="normal" font-weight="normal" xml:space="preserve"><tspan id="tspan9540" x="392.961" y="140.233">matrix</tspan></text><rect id="rect9542" width="58.018" height="19.022" x="349.006" y="322.046" fill="#c88fd5" fill-opacity="1" stroke="#000" stroke-dasharray="none" stroke-miterlimit="4" stroke-opacity="1" stroke-width=".563" rx="7.337" ry="7.337"/><text id="text9544" x="356.961" y="335.557" fill="#000" fill-opacity="1" stroke="none" stroke-linecap="butt" stroke-linejoin="miter" stroke-opacity="1" stroke-width="1" font-family="Bitstream Vera Sans" font-size="12" font-style="normal" font-weight="normal" xml:space="preserve"><tspan id="tspan9546" x="356.961" y="335.557">matrix</tspan></text><path id="path19045" fill="none" fill-rule="evenodd" stroke="#000" stroke-dasharray="none" stroke-linecap="butt" stroke-linejoin="miter" stroke-miterlimit="4" stroke-opacity="1" stroke-width=".8" marker-end="url(#Arrow1Lend)" d="M 357.76937,170.98692 L 333.51029,170.98692 L 333.51029,145.96388"/><path id="path19047" fill="none" fill-rule="evenodd" stroke="#000" stroke-dasharray="none" stroke-linecap="butt" stroke-linejoin="miter" stroke-miterlimit="4" stroke-opacity="1" stroke-width=".8" marker-end="url(#Arrow1Lend)" d="M 439.12067,170.98692 L 414.86159,170.98692 L 414.86159,145.96388"/><rect id="rect19075" width="149.224" height="54.224" x="301.932" y="434.657" fill="#59f" fill-rule="evenodd" stroke="#000" stroke-dasharray="none" stroke-linecap="butt" stroke-linejoin="miter" stroke-miterlimit="4" stroke-opacity="1" stroke-width=".776"/><text id="text19077" x="350.5" y="465.958" fill="#000" fill-opacity="1" stroke="none" stroke-linecap="butt" stroke-linejoin="miter" stroke-opacity="1" stroke-width="1" font-family="Bitstream Vera Sans" font-size="12" font-style="normal" font-weight="normal" xml:space="preserve"><tspan id="tspan19079" x="350.5" y="465.958" font-family="Courier 10 Pitch" font-size="18">Apply</tspan></text><rect id="rect19081" width="149.222" height="15.222" x="301.933" y="418.615" fill="#59f" fill-rule="evenodd" stroke="#000" stroke-dasharray="none" stroke-linecap="butt" stroke-linejoin="miter" stroke-miterlimit="4" stroke-opacity="1" stroke-width=".778"/><path id="path19083" fill="#fff" fill-opacity="1" stroke="#000" stroke-dasharray="none" stroke-miterlimit="4" stroke-opacity="1" stroke-width=".783" d="M 298.1208 252.11807 A 5.0164557 4.7775769 0 1 1 288.08788,252.11807 A 5.0164557 4.7775769 0 1 1 298.1208 252.11807 z" transform="matrix(0.9967197,0,0,1.0465556,42.719902,162.28341)"/><path id="path19085" fill="#fff" fill-opacity="1" stroke="#000" stroke-dasharray="none" stroke-miterlimit="4" stroke-opacity="1" stroke-width=".783" d="M 298.1208 252.11807 A 5.0164557 4.7775769 0 1 1 288.08788,252.11807 A 5.0164557 4.7775769 0 1 1 298.1208 252.11807 z" transform="matrix(0.9967197,0,0,1.0465556,125.84177,162.28341)"/><rect id="rect19087" width="149.222" height="15.222" x="301.915" y="489.678" fill="#59f" fill-rule="evenodd" stroke="#000" stroke-dasharray="none" stroke-linecap="butt" stroke-linejoin="miter" stroke-miterlimit="4" stroke-opacity="1" stroke-width=".778"/><path id="path19089" fill="#fff" fill-opacity="1" stroke="#000" stroke-dasharray="none" stroke-miterlimit="4" stroke-opacity="1" stroke-width=".783" d="M 298.1208 252.11807 A 5.0164557 4.7775769 0 1 1 288.08788,252.11807 A 5.0164557 4.7775769 0 1 1 298.1208 252.11807 z" transform="matrix(0.9967197,0,0,1.0465556,85.789422,233.47197)"/><path id="path19091" fill="#fff" fill-opacity="1" stroke="#000" stroke-dasharray="none" stroke-miterlimit="4" stroke-opacity="1" stroke-width=".783" d="M 298.1208 252.11807 A 5.0164557 4.7775769 0 1 1 288.08788,252.11807 A 5.0164557 4.7775769 0 1 1 298.1208 252.11807 z" transform="matrix(0.9967197,0,0,1.0465556,22.378242,198.48144)"/><g id="g19093" transform="translate(72.294702,79.626981)"><path id="path19095" fill="#87deaa" fill-opacity="1" stroke="#000" stroke-dasharray="none" stroke-miterlimit="4" stroke-opacity="1" stroke-width=".8" d="M 187.15544 385.49426 A 21.620844 18.242588 0 1 1 143.91375,385.49426 A 21.620844 18.242588 0 1 1 187.15544 385.49426 z" transform="matrix(0.90677,0,0,1.0746904,0.5745625,-32.177075)"/><text id="text19097" x="151.008" y="394.304" fill="#000" fill-opacity="1" stroke="none" stroke-linecap="butt" stroke-linejoin="miter" stroke-opacity="1" stroke-width="1" font-family="Bitstream Vera Sans" font-size="38.984" font-style="normal" font-weight="normal" text-anchor="middle" xml:space="preserve" style="text-align:center"><tspan id="tspan19099" x="151.008" y="394.304">+</tspan></text></g><path id="path19101" fill="none" fill-rule="evenodd" stroke="#000" stroke-linecap="butt" stroke-linejoin="miter" stroke-opacity="1" stroke-width="1" marker-end="url(#Arrow1Lend)" marker-start="none" d="M 309.13075,462.30169 L 242.97106,461.86799" display="inline"/><rect id="rect19103" width="46.894" height="26.624" x="311.175" y="352.987" fill="#b35b4f" fill-opacity="1" stroke="#000" stroke-dasharray="none" stroke-miterlimit="4" stroke-opacity="1" stroke-width=".526" ry="8.108"/><text id="text19105" x="342.694" y="373.848" fill="#000" fill-opacity="1" stroke="none" stroke-linecap="butt" stroke-linejoin="miter" stroke-opacity="1" stroke-width="1" font-family="Bitstream Vera Sans" font-size="23.694" font-style="normal" font-weight="normal" text-anchor="middle" xml:space="preserve" style="text-align:center"><tspan id="tspan19107" x="342.694" y="373.848">x</tspan></text><path id="path19109" fill="#fff" fill-opacity="1" stroke="#000" stroke-dasharray="none" stroke-miterlimit="4" stroke-opacity="1" stroke-width=".783" d="M 298.1208 252.11807 A 5.0164557 4.7775769 0 1 1 288.08788,252.11807 A 5.0164557 4.7775769 0 1 1 298.1208 252.11807 z" transform="matrix(0.9967197,0,0,1.0465556,32.681922,103.45719)"/><rect id="rect19119" width="46.894" height="26.624" x="355.43" y="548.588" fill="#b35b4f" fill-opacity="1" stroke="#000" stroke-dasharray="none" stroke-miterlimit="4" stroke-opacity="1" stroke-width=".526" ry="8.108"/><text id="text19121" x="386.949" y="569.449" fill="#000" fill-opacity="1" stroke="none" stroke-linecap="butt" stroke-linejoin="miter" stroke-opacity="1" stroke-width="1" font-family="Bitstream Vera Sans" font-size="23.694" font-style="normal" font-weight="normal" text-anchor="middle" xml:space="preserve" style="text-align:center"><tspan id="tspan19123" x="386.949" y="569.449">e</tspan></text><path id="path19125" fill="#fff" fill-opacity="1" stroke="#000" stroke-dasharray="none" stroke-miterlimit="4" stroke-opacity="1" stroke-width=".783" d="M 298.1208 252.11807 A 5.0164557 4.7775769 0 1 1 288.08788,252.11807 A 5.0164557 4.7775769 0 1 1 298.1208 252.11807 z" transform="matrix(0.9967197,0,0,1.0465556,76.937102,299.05828)"/><path id="path19127" fill="none" fill-rule="evenodd" stroke="#000" stroke-linecap="butt" stroke-linejoin="miter" stroke-opacity="1" stroke-width="1" marker-end="url(#Arrow1Lend)" marker-mid="url(#Arrow2Lstart)" marker-start="url(#Arrow1Lstart)" d="M 378.01143,502.73743 L 378.67836,548.32513"/><path id="path19129" fill="none" fill-rule="evenodd" stroke="#000" stroke-linecap="butt" stroke-linejoin="miter" stroke-opacity="1" stroke-width="1" marker-end="url(#Arrow1Lend)" d="M 417.87035,420.72912 L 417.00011,379.53673"/><path id="path19131" fill="none" fill-rule="evenodd" stroke="#000" stroke-linecap="butt" stroke-linejoin="miter" stroke-opacity="1" stroke-width="1" marker-end="url(#Arrow1Lend)" d="M 334.84098,420.72912 L 334.67644,379.87453"/><text id="text19133" x="270.773" y="455.823" fill="#000" fill-opacity="1" stroke="none" stroke-linecap="butt" stroke-linejoin="miter" stroke-opacity="1" stroke-width="1" font-family="Bitstream Vera Sans" font-size="12" font-style="normal" font-weight="normal" xml:space="preserve"><tspan id="tspan19135" x="270.773" y="455.823">op</tspan></text><text id="text19137" x="386.255" y="529.469" fill="#000" fill-opacity="1" stroke="none" stroke-linecap="butt" stroke-linejoin="miter" stroke-opacity="1" stroke-width="1" font-family="Bitstream Vera Sans" font-size="12" font-style="normal" font-weight="normal" xml:space="preserve"><tspan id="tspan19139" x="386.255" y="529.469">owner</tspan></text><text id="text19141" x="455.244" y="430.148" fill="#000" fill-opacity="1" stroke="none" stroke-linecap="butt" stroke-linejoin="miter" stroke-opacity="1" stroke-width="1" font-family="Bitstream Vera Sans" font-size="12" font-style="normal" font-weight="normal" xml:space="preserve"><tspan id="tspan19143" x="455.244" y="430.148">inputs</tspan></text><text id="text19145" x="455.713" y="501.092" fill="#000" fill-opacity="1" stroke="none" stroke-linecap="butt" stroke-linejoin="miter" stroke-opacity="1" stroke-width="1" font-family="Bitstream Vera Sans" font-size="12" font-style="normal" font-weight="normal" xml:space="preserve"><tspan id="tspan19147" x="455.713" y="501.092">outputs</tspan></text><rect id="rect19149" width="58.018" height="19.022" x="267.006" y="322.722" fill="#c88fd5" fill-opacity="1" stroke="#000" stroke-dasharray="none" stroke-miterlimit="4" stroke-opacity="1" stroke-width=".563" rx="7.337" ry="7.337"/><text id="text19151" x="274.961" y="336.233" fill="#000" fill-opacity="1" stroke="none" stroke-linecap="butt" stroke-linejoin="miter" stroke-opacity="1" stroke-width="1" font-family="Bitstream Vera Sans" font-size="12" font-style="normal" font-weight="normal" xml:space="preserve"><tspan id="tspan19153" x="274.961" y="336.233">matrix</tspan></text><rect id="rect19161" width="58.018" height="19.022" x="237.006" y="552.046" fill="#c88fd5" fill-opacity="1" stroke="#000" stroke-dasharray="none" stroke-miterlimit="4" stroke-opacity="1" stroke-width=".563" rx="7.337" ry="7.337"/><text id="text19163" x="244.961" y="565.557" fill="#000" fill-opacity="1" stroke="none" stroke-linecap="butt" stroke-linejoin="miter" stroke-opacity="1" stroke-width="1" font-family="Bitstream Vera Sans" font-size="12" font-style="normal" font-weight="normal" xml:space="preserve"><tspan id="tspan19165" x="244.961" y="565.557">matrix</tspan></text><path id="path19167" fill="none" fill-rule="evenodd" stroke="#000" stroke-dasharray="none" stroke-linecap="butt" stroke-linejoin="miter" stroke-miterlimit="4" stroke-opacity="1" stroke-width=".8" marker-end="url(#Arrow1Lend)" d="M 319.76937,366.98692 L 295.51029,366.98692 L 295.51029,341.96388"/><path id="path19171" fill="none" fill-rule="evenodd" stroke="#000" stroke-linecap="butt" stroke-linejoin="miter" stroke-opacity="1" stroke-width="1" marker-end="url(#Arrow1Lend)" d="M 363.68961,562.84291 L 295.30478,561.94276"/><text id="text19173" x="319.42" y="556.468" fill="#000" fill-opacity="1" stroke="none" stroke-linecap="butt" stroke-linejoin="miter" stroke-opacity="1" stroke-width="1" font-family="Bitstream Vera Sans" font-size="12" font-style="normal" font-weight="normal" xml:space="preserve"><tspan id="tspan19175" x="319.42" y="556.468">type</tspan></text><path id="path19177" fill="none" fill-rule="evenodd" stroke="#000" stroke-dasharray="none" stroke-linecap="butt" stroke-linejoin="miter" stroke-miterlimit="4" stroke-opacity="1" stroke-width=".8" marker-end="url(#Arrow1Lend)" d="M 401.76937,366.98692 L 377.51029,366.98692 L 377.51029,341.96388"/><text id="text19179" x="425.912" y="370.503" fill="#000" fill-opacity="1" stroke="none" stroke-linecap="butt" stroke-linejoin="miter" stroke-opacity="1" stroke-width="1" font-family="Bitstream Vera Sans" font-size="10.838" font-style="normal" font-weight="normal" text-anchor="middle" xml:space="preserve" style="text-align:center"><tspan id="tspan19181" x="425.912" y="370.503">tmp</tspan></text></g></svg>